<?xml version="1.0" encoding="utf-8"?>
<!-- Generator: Adobe Illustrator 28.0.0, SVG Export Plug-In . SVG Version: 6.00 Build 0)  -->
<svg version="1.1" id="Capa_1" xmlns="http://www.w3.org/2000/svg" xmlns:xlink="http://www.w3.org/1999/xlink" x="0px" y="0px"
	 viewBox="0 0 729.1 18.5" style="enable-background:new 0 0 729.1 18.5;" xml:space="preserve">
<style type="text/css">
	.st0{fill:#B3C445;}
</style>
<path class="st0" d="M726,3.3c-0.7-0.6-1.7-1-2.8-1c0,0,0,0,0,0c-5.1,0.3-7.8,2.1-10.3,3.6l-0.3,0.2c-2.3,1.4-4,2.5-7.8,2.5
	s-5.5-1-7.8-2.5l-0.2-0.1c-2.5-1.6-6-3.8-12.1-3.8c-6.3,0-9.7,2.3-12,3.8l-0.1,0.1c-2.3,1.4-4,2.5-7.8,2.5c-3.8,0-5.5-1-7.8-2.5
	L657,6.1c-2.5-1.6-6-3.8-12.1-3.8c-6.1,0-9.6,2.2-12.1,3.8l-0.1,0.1c-2.3,1.4-4,2.5-7.8,2.5c-3.8,0-5.5-1-7.8-2.5L617,6.1
	c-2.5-1.6-6-3.8-12.1-3.8c-6.3,0-9.7,2.3-12,3.8l-0.1,0.1c-2.3,1.4-4,2.5-7.8,2.5s-5.5-1-7.8-2.5l-0.2-0.1c-2.5-1.6-6-3.8-12.1-3.8
	c-6.3,0-9.7,2.3-12,3.8l-0.1,0.1c-2.3,1.4-4,2.5-7.8,2.5c-3.8,0-5.5-1-7.8-2.5l-0.1-0.1c-2.5-1.6-6-3.8-12.1-3.8
	c-6.3,0-9.7,2.3-12,3.8L513,6.2c-2.3,1.4-4,2.5-7.8,2.5s-5.5-1-7.8-2.5l-0.2-0.1c-2.5-1.6-6-3.8-12.1-3.8s-9.6,2.2-12.1,3.8L473,6.2
	c-2.3,1.4-4,2.5-7.8,2.5s-5.5-1-7.8-2.5l-0.2-0.1c-2.5-1.6-6-3.8-12.1-3.8c-6.3,0-9.7,2.3-12,3.8l-0.1,0.1c-2.3,1.4-4,2.5-7.8,2.5
	s-5.5-1-7.8-2.5l-0.2-0.1c-2.5-1.6-6-3.8-12.1-3.8h-0.2c-6.3,0-9.7,2.3-12,3.8L393,6.2c-2.3,1.4-4,2.5-7.8,2.5s-5.5-1-7.8-2.5
	l-0.2-0.1c-2.5-1.6-6-3.8-12.1-3.8c-6.3,0-9.7,2.3-12,3.8l-0.1,0.1c-2.3,1.4-4,2.5-7.8,2.5c-3.8,0-5.5-1-7.8-2.5l-0.1-0.1
	c-2.5-1.6-6-3.8-12.1-3.8c-6.1,0-9.6,2.2-12.1,3.8l-0.1,0.1c-2.3,1.4-4,2.5-7.8,2.5c-3.8,0-5.5-1-7.8-2.5l-0.1-0.1
	c-2.5-1.6-6-3.8-12.1-3.8c-6.3,0-9.7,2.3-12,3.8l-0.1,0.1c-2.3,1.4-4,2.5-7.8,2.5c-3.8,0-5.5-1-7.8-2.5l-0.1-0.1
	c-2.5-1.6-6-3.8-12.1-3.8c-6.3,0-9.7,2.3-12,3.8l-0.1,0.1c-2.3,1.4-4,2.5-7.8,2.5s-5.5-1-7.8-2.5l-0.1-0.1c-2.5-1.6-6-3.8-12.1-3.8
	s-9.6,2.2-12.1,3.8l-0.1,0.1c-2.3,1.4-4,2.5-7.8,2.5s-5.5-1-7.8-2.5l-0.1-0.1c-2.5-1.6-6-3.8-12.1-3.8c-6,0-9.3,2.1-11.9,3.7
	l-0.3,0.2c-2.3,1.4-4,2.5-7.8,2.5c-3.8,0-5.5-1-7.8-2.5l-0.1-0.1c-2.5-1.6-6-3.8-12.1-3.8c-6.3,0-9.7,2.3-12,3.8l-0.1,0.1
	c-2.3,1.4-4,2.5-7.8,2.5c-3.8,0-5.5-1-7.8-2.5l-0.1-0.1c-2.5-1.6-6-3.8-12.1-3.8c-6.3,0-9.7,2.3-12,3.8l-0.1,0.1
	c-2.3,1.4-4,2.5-7.8,2.5c-3.8,0-5.5-1-7.8-2.5l-0.1-0.1c-2.5-1.6-6-3.8-12.1-3.8c-6.1,0-9.6,2.2-12.1,3.8l-0.1,0.1
	c-2.3,1.4-4,2.5-7.8,2.5c-3.8,0-5.5-1-7.8-2.5l-0.1-0.1c-2.5-1.6-6-3.8-12.1-3.8C3.6,2.3,1.9,4,1.9,6.1c0,2.1,1.7,3.8,3.9,3.8
	c3.8,0,5.5,1,7.8,2.5l0.1,0.1c2.5,1.6,6,3.8,12.1,3.8c6.3,0,9.7-2.3,12-3.8l0.1-0.1c2.3-1.4,4-2.5,7.8-2.5c3.8,0,5.5,1,7.8,2.5
	l0.1,0.1c2.5,1.6,6,3.8,12.1,3.8c6.1,0,9.6-2.2,12.1-3.8l0.1-0.1c2.3-1.4,4-2.5,7.8-2.5c3.8,0,5.4,1,7.4,2.5l0.1,0.1
	c2.5,1.6,6,3.8,12.1,3.8c6.1,0,9.6-2.2,12.1-3.8l0.1-0.1c2.3-1.4,4-2.5,7.8-2.5c3.8,0,5.5,1,7.8,2.5l0.1,0.1c2.5,1.6,6,3.8,12.1,3.8
	c6.1,0,9.6-2.2,12.1-3.8l0.1-0.1c2.3-1.4,4-2.5,7.8-2.5c3.8,0,5.5,1,7.8,2.5l0.1,0.1c2.5,1.6,6,3.8,12.1,3.8c6.1,0,9.6-2.2,12.1-3.8
	l0.1-0.1c2.3-1.4,4-2.5,7.8-2.5c3.8,0,5.5,1,7.8,2.5l0.1,0.1c2.5,1.6,6,3.8,12.1,3.8c6.1,0,9.6-2.2,12.1-3.8l0.1-0.1
	c2.3-1.4,4-2.5,7.8-2.5c3.8,0,5.5,1,7.8,2.5l0.1,0.1c2.5,1.6,6,3.8,12.1,3.8c6.1,0,9.6-2.2,12.1-3.8l0.1-0.1c2.3-1.4,4-2.5,7.8-2.5
	c3.8,0,5.5,1,7.8,2.5l0.1,0.1c2.5,1.6,6,3.8,12.1,3.8c6.3,0,9.7-2.3,12-3.8l0.1-0.1c2.3-1.4,4-2.5,7.8-2.5c3.8,0,5.5,1,7.8,2.5
	l0.1,0.1c2.5,1.6,6,3.8,12.1,3.8c6.3,0,9.7-2.3,12-3.8l0.1-0.1c2.3-1.4,4-2.5,7.8-2.5c3.8,0,5.5,1,7.8,2.5l0.1,0.1
	c2.5,1.6,6,3.8,12.1,3.8h0.1l3.7-0.3l0.1,0c3.7-0.6,6.1-2.2,8.1-3.4l0.3-0.2c2.3-1.4,4-2.5,7.8-2.5v0h0.2c3.8,0,5.5,1,7.8,2.5
	l0.1,0.1c2.5,1.6,6,3.8,12.1,3.8c6.3,0,9.7-2.3,12-3.8l0.1-0.1c2.3-1.4,4-2.5,7.8-2.5s5.5,1,7.8,2.5l0.1,0.1c2.5,1.6,6,3.8,12.1,3.8
	c5.9,0,9.3-2,11.9-3.8l0.1-0.1c2.3-1.4,4-2.5,7.8-2.5s5.5,1,7.8,2.5l0.1,0.1c2.5,1.6,6,3.8,12.1,3.8s9.6-2.2,12.1-3.8l0.1-0.1
	c2.3-1.4,4-2.5,7.8-2.5s5.5,1,7.8,2.5l0.1,0.1c2.5,1.6,6,3.8,12.1,3.8s9.6-2.2,12.1-3.8l0.1-0.1c2.3-1.4,4-2.5,7.8-2.5
	s5.5,1,7.8,2.5l0.1,0.1c2.5,1.6,6,3.8,12.1,3.8c5.7,0,9.1-1.8,11.8-3.9l0.1-0.1c2.3-1.4,4-2.5,7.8-2.5s5.5,1,7.8,2.5l0.1,0.1
	c2.5,1.6,6,3.8,12.1,3.8s9.6-2.2,12.1-3.8l0.1-0.1c2.3-1.4,4-2.5,7.8-2.5s5.5,1,7.8,2.5l0.1,0.1c2.5,1.6,6,3.8,12.1,3.8
	s9.6-2.2,12.1-3.8l0.1-0.1c2.3-1.4,4-2.5,7.8-2.5s5.5,1,7.8,2.5l0.1,0.1c2.5,1.6,6,3.8,12.1,3.8s9.6-2.2,12.1-3.8
	c2-1.3,3.6-2.3,6.8-2.5c2-0.2,3.6-1.8,3.6-3.8C727.2,4.7,726.6,3.8,726,3.3z"/>
</svg>
